<svg xmlns="http://www.w3.org/2000/svg" xmlns:xlink="http://www.w3.org/1999/xlink" width="1080" zoomAndPan="magnify" viewBox="0 0 810 809.999993" height="1080" preserveAspectRatio="xMidYMid meet" version="1.0"><defs><clipPath id="401c771ca7"><path d="M 170.230469 124.125 L 639.730469 124.125 L 639.730469 729 L 170.230469 729 Z M 170.230469 124.125 " clip-rule="nonzero"/></clipPath></defs><g clip-path="url(#401c771ca7)"><path fill="#add480" d="M 555.976562 186.925781 C 515.480469 146.429688 461.84375 124.125 404.945312 124.125 C 348.050781 124.125 294.4375 146.429688 253.949219 186.925781 C 213.449219 227.421875 191.152344 281.058594 191.152344 337.953125 L 191.152344 562.355469 C 179.199219 565.347656 170.324219 576.175781 170.324219 589.039062 L 170.324219 701.523438 C 170.324219 716.675781 182.664062 729 197.832031 729 L 245.117188 729 C 253.441406 729 259.472656 724.695312 263.421875 721.875 L 296.441406 698.601562 C 300.070312 696.046875 301.898438 694.972656 303.8125 694.972656 L 506.105469 694.972656 C 508.015625 694.972656 509.847656 696.046875 513.476562 698.601562 L 546.449219 721.84375 C 550.441406 724.6875 556.476562 728.992188 564.800781 728.992188 L 612.085938 728.992188 C 627.253906 728.992188 639.59375 716.667969 639.59375 701.515625 L 639.59375 589.03125 C 639.59375 576.160156 630.714844 565.339844 618.761719 562.347656 L 618.761719 337.945312 C 618.761719 281.050781 596.457031 227.414062 555.960938 186.917969 Z M 404.945312 143.039062 C 512.417969 143.039062 599.859375 230.476562 599.859375 337.953125 L 599.859375 561.53125 L 210.070312 561.53125 L 210.070312 337.953125 C 210.070312 230.484375 297.492188 143.039062 404.945312 143.039062 Z M 620.683594 701.523438 C 620.683594 706.238281 616.828125 710.082031 612.09375 710.082031 L 564.808594 710.082031 C 562.847656 710.082031 561.035156 709.007812 557.398438 706.421875 L 524.378906 683.148438 C 520.136719 680.164062 514.332031 676.0625 506.105469 676.0625 L 303.8125 676.0625 C 295.585938 676.0625 289.777344 680.164062 285.535156 683.148438 L 252.472656 706.453125 C 248.882812 709.015625 247.058594 710.082031 245.109375 710.082031 L 197.824219 710.082031 C 193.089844 710.082031 189.234375 706.238281 189.234375 701.523438 L 189.234375 589.039062 C 189.234375 584.304688 193.089844 580.449219 197.824219 580.449219 L 612.09375 580.449219 C 616.828125 580.449219 620.683594 584.304688 620.683594 589.039062 Z M 402.964844 600.507812 C 387.648438 600.507812 375.1875 612.953125 375.1875 628.25 C 375.1875 643.542969 387.648438 655.988281 402.964844 655.988281 C 418.285156 655.988281 430.707031 643.542969 430.707031 628.25 C 430.707031 612.953125 418.261719 600.507812 402.964844 600.507812 Z M 402.964844 637.074219 C 398.082031 637.074219 394.113281 633.109375 394.113281 628.25 C 394.113281 623.386719 398.082031 619.425781 402.964844 619.425781 C 407.851562 619.425781 411.789062 623.386719 411.789062 628.25 C 411.789062 633.109375 407.828125 637.074219 402.964844 637.074219 Z M 320.628906 600.507812 C 305.332031 600.507812 292.886719 612.953125 292.886719 628.25 C 292.886719 643.542969 305.332031 655.988281 320.628906 655.988281 C 335.921875 655.988281 348.367188 643.542969 348.367188 628.25 C 348.367188 612.953125 335.921875 600.507812 320.628906 600.507812 Z M 320.628906 637.074219 C 315.765625 637.074219 311.804688 633.109375 311.804688 628.25 C 311.804688 623.386719 315.765625 619.425781 320.628906 619.425781 C 325.488281 619.425781 329.449219 623.386719 329.449219 628.25 C 329.449219 633.109375 325.488281 637.074219 320.628906 637.074219 Z M 485.28125 600.507812 C 469.984375 600.507812 457.539062 612.953125 457.539062 628.25 C 457.539062 643.542969 469.984375 655.988281 485.28125 655.988281 C 500.578125 655.988281 513.0625 643.542969 513.0625 628.25 C 513.0625 612.953125 500.601562 600.507812 485.28125 600.507812 Z M 485.28125 637.074219 C 480.421875 637.074219 476.457031 633.109375 476.457031 628.25 C 476.457031 623.386719 480.421875 619.425781 485.28125 619.425781 C 490.144531 619.425781 494.144531 623.386719 494.144531 628.25 C 494.144531 633.109375 490.171875 637.074219 485.28125 637.074219 Z M 332.792969 396.847656 C 340.367188 404.964844 345.296875 413.835938 347.761719 423.785156 C 339.984375 428.277344 334.734375 436.675781 334.734375 446.289062 C 334.734375 455.074219 339.121094 462.847656 345.820312 467.546875 C 344.179688 471.078125 343.242188 475.078125 343.242188 479.304688 C 343.242188 491.011719 350.335938 500.929688 360.050781 504.160156 L 360.050781 507.832031 C 360.050781 521.617188 371.261719 532.828125 385.046875 532.828125 L 424.863281 532.828125 C 438.628906 532.828125 449.828125 521.617188 449.828125 507.832031 L 449.828125 504.167969 C 459.558594 500.945312 466.675781 491.019531 466.675781 479.296875 C 466.675781 475.0625 465.746094 471.070312 464.097656 467.542969 C 470.789062 462.839844 475.171875 455.066406 475.171875 446.28125 C 475.171875 436.65625 469.902344 428.238281 462.101562 423.753906 C 464.578125 413.804688 469.507812 404.960938 477.054688 396.867188 C 494.089844 378.5625 503.464844 354.730469 503.464844 329.742188 C 503.464844 275.410156 459.265625 231.207031 404.933594 231.207031 C 350.597656 231.207031 306.429688 275.410156 306.429688 329.742188 C 306.429688 354.710938 315.78125 378.535156 332.777344 396.839844 Z M 449.214844 439.234375 C 453.035156 439.234375 456.261719 442.460938 456.261719 446.28125 C 456.261719 450.097656 453.035156 453.328125 449.214844 453.328125 L 360.707031 453.328125 C 356.820312 453.328125 353.660156 450.167969 353.660156 446.28125 C 353.660156 442.394531 356.820312 439.234375 360.707031 439.234375 Z M 447.757812 479.304688 C 447.757812 483.34375 445.253906 486.351562 443.015625 486.351562 L 366.898438 486.351562 C 364.664062 486.351562 362.160156 483.335938 362.160156 479.304688 C 362.160156 475.277344 364.664062 472.257812 366.898438 472.257812 L 443.015625 472.257812 C 445.253906 472.257812 447.757812 475.277344 447.757812 479.304688 Z M 424.871094 513.914062 L 385.054688 513.914062 C 381.757812 513.914062 378.976562 511.128906 378.976562 507.832031 L 378.976562 505.269531 L 430.910156 505.269531 L 430.910156 507.832031 C 430.910156 511.183594 428.195312 513.914062 424.871094 513.914062 Z M 404.945312 250.132812 C 448.84375 250.132812 484.5625 285.851562 484.5625 329.75 C 484.5625 349.929688 476.988281 369.195312 463.226562 383.976562 C 453.277344 394.644531 446.667969 406.84375 443.492188 420.316406 L 366.371094 420.316406 C 363.21875 406.847656 356.609375 394.644531 346.644531 383.953125 C 332.921875 369.171875 325.359375 349.921875 325.359375 329.75 C 325.359375 285.851562 361.0625 250.132812 404.9375 250.132812 Z M 362.71875 354.753906 L 382.316406 370.066406 C 386.671875 373.453125 391.820312 375.109375 396.933594 375.109375 C 403.699219 375.109375 410.421875 372.210938 415.152344 366.625 L 450.886719 324.222656 C 455.015625 319.316406 456.972656 313.132812 456.414062 306.789062 C 455.847656 300.445312 452.824219 294.699219 447.953125 290.644531 L 447.445312 290.214844 C 437.445312 281.925781 422.472656 283.226562 414.074219 293.117188 L 393.589844 317.238281 L 391.902344 316.058594 C 380.851562 308.351562 366.417969 310.816406 358.332031 321.78125 C 351.460938 331.105469 350.765625 345.417969 362.71875 354.746094 Z M 373.5625 333.015625 C 374.242188 332.09375 375.753906 330.453125 377.917969 330.453125 C 378.855469 330.453125 379.921875 330.765625 381.085938 331.582031 L 389.824219 337.675781 C 393.824219 340.464844 399.292969 339.753906 402.445312 336.042969 L 428.5 305.367188 C 430.222656 303.332031 433.308594 303.074219 435.304688 304.722656 L 435.804688 305.148438 C 436.832031 306 437.464844 307.179688 437.578125 308.464844 C 437.691406 309.75 437.285156 311.023438 436.429688 312.035156 L 400.710938 354.414062 C 399.003906 356.441406 396.03125 356.757812 393.96875 355.148438 L 374.371094 339.835938 C 371.308594 337.449219 372.246094 334.808594 373.570312 333.015625 Z M 395.488281 207.960938 L 395.488281 181.238281 C 395.488281 176.015625 399.722656 171.78125 404.945312 171.78125 C 410.171875 171.78125 414.40625 176.015625 414.40625 181.238281 L 414.40625 207.960938 C 414.40625 213.183594 410.171875 217.417969 404.945312 217.417969 C 399.722656 217.417969 395.488281 213.183594 395.488281 207.960938 Z M 484.488281 250.375 C 480.789062 246.679688 480.789062 240.691406 484.488281 237 L 503.40625 218.082031 C 507.101562 214.386719 513.089844 214.386719 516.78125 218.082031 C 520.476562 221.78125 520.476562 227.769531 516.78125 231.457031 L 497.863281 250.375 C 496.019531 252.222656 493.597656 253.152344 491.171875 253.152344 C 488.746094 253.152344 486.332031 252.226562 484.480469 250.382812 Z M 517.445312 329.917969 C 517.445312 324.691406 521.679688 320.457031 526.90625 320.457031 L 553.625 320.457031 C 558.851562 320.457031 563.082031 324.691406 563.082031 329.917969 C 563.082031 335.140625 558.851562 339.375 553.625 339.375 L 526.90625 339.375 C 521.679688 339.375 517.445312 335.140625 517.445312 329.917969 Z M 516.78125 428.335938 C 520.476562 432.027344 520.484375 438.015625 516.796875 441.714844 C 514.949219 443.566406 512.523438 444.488281 510.105469 444.488281 C 507.683594 444.488281 505.265625 443.566406 503.421875 441.71875 L 484.503906 422.832031 C 480.804688 419.144531 480.796875 413.15625 484.488281 409.457031 C 488.175781 405.761719 494.164062 405.753906 497.863281 409.441406 L 516.78125 428.332031 Z M 325.445312 409.464844 C 329.132812 413.164062 329.125 419.152344 325.429688 422.839844 L 306.511719 441.726562 C 304.667969 443.574219 302.246094 444.496094 299.828125 444.496094 C 297.40625 444.496094 294.980469 443.574219 293.136719 441.71875 C 289.445312 438.023438 289.453125 432.035156 293.152344 428.34375 L 312.066406 409.457031 C 315.765625 405.769531 321.761719 405.777344 325.445312 409.472656 Z M 246.839844 329.917969 C 246.839844 324.691406 251.074219 320.457031 256.300781 320.457031 L 283.019531 320.457031 C 288.242188 320.457031 292.476562 324.691406 292.476562 329.917969 C 292.476562 335.140625 288.242188 339.375 283.019531 339.375 L 256.300781 339.375 C 251.074219 339.375 246.839844 335.140625 246.839844 329.917969 Z M 293.144531 231.457031 C 289.445312 227.761719 289.445312 221.773438 293.144531 218.082031 C 296.839844 214.386719 302.828125 214.394531 306.519531 218.082031 L 325.4375 237 C 329.132812 240.699219 329.132812 246.6875 325.4375 250.375 C 323.589844 252.222656 321.164062 253.144531 318.746094 253.144531 C 316.324219 253.144531 313.90625 252.222656 312.054688 250.367188 L 293.136719 231.449219 Z M 293.144531 231.457031 " fill-opacity="1" fill-rule="nonzero"/></g></svg>