<svg xmlns="http://www.w3.org/2000/svg" xmlns:xlink="http://www.w3.org/1999/xlink" width="1080" zoomAndPan="magnify" viewBox="0 0 810 809.999993" height="1080" preserveAspectRatio="xMidYMid meet" version="1.0"><defs><clipPath id="1f243887c0"><path d="M 195 170.773438 L 671 170.773438 L 671 639 L 195 639 Z M 195 170.773438 " clip-rule="nonzero"/></clipPath></defs><g clip-path="url(#1f243887c0)"><path fill="#add480" d="M 626.691406 419.957031 C 618.027344 419.957031 610.015625 422.574219 603.148438 426.90625 L 559.816406 370.988281 C 574.371094 358.316406 583.527344 339.757812 583.527344 318.992188 C 583.527344 280.980469 552.542969 249.992188 514.527344 249.992188 C 498.09375 249.992188 483.050781 255.71875 471.199219 265.28125 L 451.820312 244.027344 C 459.015625 236.257812 463.429688 225.957031 463.429688 214.511719 C 463.429688 190.3125 443.726562 170.53125 419.449219 170.53125 C 395.167969 170.53125 375.464844 190.3125 375.464844 214.511719 L 375.464844 214.675781 L 282.675781 223.425781 C 278.832031 202.984375 261.011719 187.535156 239.507812 187.535156 C 215.226562 187.535156 195.527344 207.238281 195.527344 231.519531 C 195.527344 255.796875 215.226562 275.5 239.507812 275.5 C 244.332031 275.5 248.910156 274.519531 253.324219 273.046875 L 281.367188 337.0625 C 258.476562 348.261719 242.699219 371.804688 242.699219 398.949219 C 242.699219 421.101562 253.242188 440.804688 269.429688 453.476562 C 269.839844 453.886719 270.328125 454.296875 270.902344 454.539062 C 281.203125 462.144531 293.710938 466.96875 307.28125 467.785156 L 307.28125 551.089844 C 284.964844 553.132812 267.304688 571.773438 267.304688 594.664062 C 267.304688 618.863281 287.089844 638.648438 311.371094 638.648438 C 335.652344 638.648438 355.351562 618.863281 355.351562 594.664062 C 355.351562 591.3125 354.863281 588.125 354.207031 585.019531 L 421 563.355469 C 425.496094 571.121094 431.464844 577.90625 438.578125 583.382812 C 438.988281 583.875 439.394531 584.28125 439.96875 584.527344 C 451.414062 592.949219 465.554688 598.015625 480.84375 598.015625 C 496.132812 598.015625 510.195312 592.949219 521.640625 584.527344 C 522.210938 584.28125 522.703125 583.875 523.109375 583.382812 C 539.378906 570.792969 549.925781 551.089844 549.925781 528.9375 C 549.925781 522.3125 548.945312 515.9375 547.144531 509.886719 L 589.738281 487.648438 C 597.585938 499.832031 611.160156 507.925781 626.691406 507.925781 C 650.972656 507.925781 670.675781 488.222656 670.675781 463.941406 C 670.675781 439.660156 650.972656 419.957031 626.691406 419.957031 Z M 480.433594 493.292969 C 493.433594 493.292969 503.980469 503.835938 503.980469 516.835938 C 503.980469 529.835938 493.433594 540.382812 480.433594 540.382812 C 467.4375 540.382812 456.890625 529.835938 456.890625 516.835938 C 456.890625 503.835938 467.4375 493.292969 480.433594 493.292969 Z M 488.773438 460.34375 C 486.15625 460.101562 483.542969 459.855469 480.84375 459.855469 C 458.363281 459.855469 438.414062 470.726562 425.824219 487.40625 L 368.351562 438.351562 C 376.199219 427.234375 380.777344 413.664062 380.777344 398.949219 C 380.777344 390.527344 379.226562 382.433594 376.445312 374.996094 L 451.414062 346.953125 C 456.074219 357.5 463.265625 366.574219 472.179688 373.523438 C 472.585938 373.933594 473.078125 374.339844 473.648438 374.585938 C 481.417969 380.308594 490.328125 384.476562 500.054688 386.523438 Z M 334.914062 386.847656 C 334.914062 399.847656 324.285156 410.394531 311.371094 410.394531 C 298.371094 410.394531 287.824219 399.847656 287.824219 386.847656 C 287.824219 373.933594 298.371094 363.304688 311.371094 363.304688 C 324.285156 363.304688 334.914062 373.933594 334.914062 386.847656 Z M 514.035156 330.519531 C 501.117188 330.519531 490.492188 319.894531 490.492188 306.976562 C 490.492188 293.976562 501.117188 283.347656 514.035156 283.347656 C 527.035156 283.347656 537.582031 293.976562 537.582031 306.976562 C 537.582031 319.894531 527.035156 330.519531 514.035156 330.519531 Z M 479.289062 368.617188 L 479.289062 366.246094 C 479.289062 357.910156 486.078125 351.121094 494.414062 351.121094 L 534.554688 351.121094 C 542.894531 351.121094 549.679688 357.910156 549.679688 366.246094 L 549.679688 368.617188 C 539.707031 375.730469 527.605469 379.898438 514.527344 379.898438 C 501.363281 379.898438 489.265625 375.730469 479.289062 368.617188 Z M 419.449219 178.707031 C 439.230469 178.707031 455.253906 194.8125 455.253906 214.511719 C 455.253906 234.214844 439.230469 250.320312 419.449219 250.320312 C 399.664062 250.320312 383.640625 234.296875 383.640625 214.511719 C 383.640625 194.730469 399.746094 178.707031 419.449219 178.707031 Z M 239.507812 267.324219 C 219.804688 267.324219 203.703125 251.300781 203.703125 231.519531 C 203.703125 211.734375 219.804688 195.710938 239.507812 195.710938 C 259.210938 195.710938 275.316406 211.734375 275.316406 231.519531 C 275.316406 251.300781 259.292969 267.324219 239.507812 267.324219 Z M 260.765625 269.777344 C 274.253906 262.257812 283.492188 248.03125 283.492188 231.519531 L 376.28125 222.769531 C 380.207031 243.125 398.027344 258.496094 419.449219 258.496094 C 429.339844 258.496094 438.414062 255.144531 445.773438 249.585938 L 465.148438 270.839844 C 452.964844 283.269531 445.445312 300.273438 445.445312 318.992188 C 445.445312 326.105469 446.507812 332.890625 448.46875 339.351562 L 373.175781 367.472656 C 361.648438 345.238281 338.511719 329.949219 311.777344 329.949219 C 303.765625 329.949219 296.082031 331.339844 288.886719 333.871094 Z M 276.542969 448.574219 L 276.542969 446.203125 C 276.542969 437.863281 283.328125 431.078125 291.667969 431.078125 L 331.808594 431.078125 C 340.148438 431.078125 346.933594 437.863281 346.933594 446.203125 L 346.933594 448.574219 C 336.957031 455.683594 324.859375 459.855469 311.777344 459.855469 C 298.617188 459.855469 286.515625 455.683594 276.542969 448.574219 Z M 311.371094 630.472656 C 291.585938 630.472656 275.480469 614.367188 275.480469 594.664062 C 275.480469 574.960938 291.585938 558.855469 311.371094 558.855469 C 331.152344 558.855469 347.179688 574.882812 347.179688 594.664062 C 347.179688 614.449219 331.074219 630.472656 311.371094 630.472656 Z M 351.675781 577.25 C 345.460938 562.863281 331.726562 552.5625 315.457031 551.089844 L 315.457031 467.867188 C 329.273438 467.128906 342.109375 462.308594 352.574219 454.539062 C 353.144531 454.296875 353.636719 453.886719 354.046875 453.476562 C 357.398438 450.863281 360.503906 447.917969 363.285156 444.8125 L 421.246094 494.273438 C 415.277344 504.410156 411.761719 516.265625 411.761719 528.9375 C 411.761719 538.5 413.726562 547.65625 417.320312 555.996094 Z M 516 578.558594 C 506.023438 585.589844 493.925781 589.84375 480.84375 589.84375 C 467.765625 589.84375 455.582031 585.589844 445.691406 578.558594 L 445.691406 576.1875 C 445.691406 567.851562 452.476562 561.066406 460.816406 561.066406 L 500.875 561.066406 C 509.210938 561.066406 516 567.851562 516 576.1875 Z M 585.980469 480.457031 L 544.449219 502.039062 C 535.945312 482.089844 518.289062 466.96875 496.785156 461.816406 L 508.148438 387.75 C 510.273438 387.992188 512.320312 388.074219 514.527344 388.074219 C 528.914062 388.074219 542.324219 383.660156 553.441406 376.058594 L 596.6875 431.976562 C 588.105469 439.988281 582.707031 451.269531 582.707031 463.941406 C 582.707031 469.746094 583.851562 475.304688 585.980469 480.457031 Z M 626.691406 499.75 C 606.90625 499.75 590.882812 483.726562 590.882812 463.941406 C 590.882812 444.15625 606.90625 428.132812 626.691406 428.132812 C 646.476562 428.132812 662.5 444.238281 662.5 463.941406 C 662.5 483.644531 646.394531 499.75 626.691406 499.75 Z M 626.691406 499.75 " fill-opacity="1" fill-rule="nonzero"/></g></svg>