<svg xmlns="http://www.w3.org/2000/svg" xmlns:xlink="http://www.w3.org/1999/xlink" width="1080" zoomAndPan="magnify" viewBox="0 0 810 809.999993" height="1080" preserveAspectRatio="xMidYMid meet" version="1.0"><path fill="#add480" d="M 683.835938 583.171875 C 682.746094 582.082031 681.65625 581.09375 680.367188 580.101562 L 569.457031 487.410156 C 595.601562 445.027344 595.898438 391.253906 570.25 348.671875 L 570.25 206.566406 C 570.25 206.46875 570.25 206.371094 570.25 206.371094 C 570.25 206.074219 570.050781 205.777344 570.050781 205.378906 C 570.050781 205.179688 569.953125 204.882812 569.953125 204.785156 C 569.554688 202.507812 568.664062 200.429688 566.980469 198.941406 L 452.007812 83.871094 C 450.128906 82.089844 447.554688 81 444.878906 81 L 175.421875 81 C 148.089844 81 125.910156 103.183594 125.910156 130.515625 L 125.910156 605.847656 C 125.910156 633.179688 148.089844 655.363281 175.421875 655.363281 L 520.734375 655.363281 C 548.066406 655.363281 570.25 633.179688 570.25 605.847656 L 570.25 584.359375 L 618.375 641.894531 C 658.484375 688.042969 725.226562 628.03125 683.835938 583.171875 Z M 569.65625 417.398438 C 569.65625 447.703125 557.871094 476.222656 536.382812 497.613281 C 514.890625 519 486.472656 530.886719 456.167969 530.886719 C 425.867188 530.886719 397.347656 519.101562 375.957031 497.613281 C 331.691406 453.347656 331.691406 381.351562 375.957031 337.1875 C 397.347656 315.796875 425.867188 303.914062 456.167969 303.914062 C 486.472656 303.914062 514.992188 315.695312 536.382812 337.1875 C 557.769531 358.675781 569.65625 387.097656 569.65625 417.398438 Z M 550.441406 605.847656 C 550.441406 622.1875 537.074219 635.558594 520.734375 635.558594 L 175.421875 635.558594 C 159.082031 635.558594 145.714844 622.1875 145.714844 605.847656 L 145.714844 130.515625 C 145.714844 114.175781 159.082031 100.804688 175.421875 100.804688 L 434.976562 100.804688 L 434.976562 206.371094 C 434.976562 211.816406 439.433594 216.273438 444.878906 216.273438 L 550.441406 216.273438 L 550.441406 323.222656 C 525.289062 298.070312 491.820312 284.207031 456.265625 284.207031 C 422.203125 284.207031 390.117188 296.980469 365.359375 320.152344 L 214.042969 320.152344 C 208.597656 320.152344 204.140625 324.609375 204.140625 330.054688 C 204.140625 335.503906 208.597656 339.957031 214.042969 339.957031 L 348.03125 339.957031 C 337.929688 354.121094 330.898438 369.765625 326.9375 386.105469 L 214.042969 386.105469 C 208.597656 386.105469 204.140625 390.5625 204.140625 396.007812 C 204.140625 401.457031 208.597656 405.910156 214.042969 405.910156 L 323.570312 405.910156 C 322.28125 421.359375 323.667969 436.90625 327.628906 451.960938 L 214.042969 451.960938 C 208.597656 451.960938 204.140625 456.414062 204.140625 461.863281 C 204.140625 467.308594 208.597656 471.765625 214.042969 471.765625 L 334.761719 471.765625 C 341.195312 486.222656 350.207031 499.789062 362.089844 511.671875 C 364.269531 513.851562 366.648438 515.933594 369.023438 517.914062 L 214.042969 517.914062 C 208.597656 517.914062 204.140625 522.367188 204.140625 527.816406 C 204.140625 533.261719 208.597656 537.71875 214.042969 537.71875 L 399.226562 537.71875 C 417.25 546.234375 436.660156 550.589844 456.265625 550.589844 C 480.429688 550.589844 504.394531 543.957031 525.6875 530.984375 L 550.445312 560.59375 L 550.445312 605.847656 Z M 550.441406 605.847656 " fill-opacity="1" fill-rule="nonzero"/><path fill="#add480" d="M 214.042969 274.007812 L 348.03125 274.007812 C 353.476562 274.007812 357.933594 269.550781 357.933594 264.101562 C 357.933594 258.65625 353.476562 254.199219 348.03125 254.199219 L 214.042969 254.199219 C 208.597656 254.199219 204.140625 258.65625 204.140625 264.101562 C 204.140625 269.550781 208.597656 274.007812 214.042969 274.007812 Z M 214.042969 274.007812 " fill-opacity="1" fill-rule="nonzero"/></svg>